<svg width="28" height="28" viewBox="0 0 28 28" fill="none" xmlns="http://www.w3.org/2000/svg">
<path d="M23.3077 8.5346L17.4743 3.84295C15.4607 2.22422 12.5393 2.22422 10.5257 3.84295L4.69234 8.5346C3.37867 9.5908 2.625 11.1628 2.625 12.8481V19.8412C2.625 22.8942 5.11117 25.3789 8.16667 25.3789H11.375V19.8412C11.375 18.3963 12.5522 17.22 14 17.22C15.4478 17.22 16.625 18.3963 16.625 19.8412V25.3789H19.8333C22.8888 25.3789 25.375 22.8954 25.375 19.8412V12.8481C25.375 11.1628 24.6213 9.5908 23.3077 8.5346ZM23.625 19.8412C23.625 21.9291 21.924 23.6283 19.8333 23.6283H18.375V19.8412C18.375 17.4312 16.4127 15.4693 14 15.4693C11.5873 15.4693 9.625 17.4312 9.625 19.8412V23.6283H8.16667C6.076 23.6283 4.375 21.9291 4.375 19.8412V12.8481C4.375 11.6962 4.8895 10.6213 5.78783 9.89891L11.6212 5.20726C13.0002 4.09971 14.9998 4.09971 16.3777 5.20726L22.211 9.89891C23.1093 10.6213 23.6238 11.6962 23.6238 12.8481V19.8412H23.625Z" fill="white"/>
</svg>
