<svg width="28" height="22" viewBox="0 0 28 22" fill="none" xmlns="http://www.w3.org/2000/svg">
<path d="M19.5848 8.42938L16.5826 5.42723C16.0303 4.87495 16.0303 3.9828 16.5826 3.43052C17.1349 2.87824 18.0271 2.87824 18.5793 3.43052L20.5761 5.42723L25.5891 0.414212C26.1414 -0.138071 27.0335 -0.138071 27.5858 0.414212C28.1381 0.966494 28.1381 1.85864 27.5858 2.41092L21.5815 8.41522C21.0292 8.98167 20.1371 8.98167 19.5848 8.42938ZM11.3289 3.77039H1.41611C0.637249 3.77039 0 4.40764 0 5.1865C0 5.96536 0.637249 6.6026 1.41611 6.6026H11.3289C12.1077 6.6026 12.745 5.96536 12.745 5.1865C12.745 4.40764 12.1077 3.77039 11.3289 3.77039ZM25.9006 11.8564C25.3483 11.3041 24.4562 11.3041 23.9039 11.8564L21.2416 14.5186L18.5793 11.8564C18.0271 11.3041 17.1349 11.3041 16.5826 11.8564C16.0303 12.4086 16.0303 13.3008 16.5826 13.8531L19.2449 16.5154L16.5826 19.1776C16.0303 19.7299 16.0303 20.6221 16.5826 21.1744C17.1349 21.7266 18.0271 21.7266 18.5793 21.1744L21.2416 18.5121L23.9039 21.1744C24.4562 21.7266 25.3483 21.7266 25.9006 21.1744C26.4529 20.6221 26.4529 19.7299 25.9006 19.1776L23.2383 16.5154L25.9006 13.8531C26.4529 13.3008 26.4529 12.4086 25.9006 11.8564ZM11.3289 15.0993H1.41611C0.637249 15.0993 0 15.7365 0 16.5154C0 17.2942 0.637249 17.9315 1.41611 17.9315H11.3289C12.1077 17.9315 12.745 17.2942 12.745 16.5154C12.745 15.7365 12.1077 15.0993 11.3289 15.0993Z" fill="white"/>
</svg>
