<svg width="24" height="24" viewBox="0 0 24 24" fill="none" xmlns="http://www.w3.org/2000/svg">
<path d="M12 16.375C11.1347 16.375 10.2888 16.1184 9.56938 15.6377C8.84991 15.1569 8.28916 14.4737 7.95803 13.6742C7.62689 12.8748 7.54025 11.9951 7.70906 11.1465C7.87787 10.2978 8.29455 9.51826 8.90641 8.90641C9.51826 8.29455 10.2978 7.87787 11.1465 7.70906C11.9951 7.54025 12.8748 7.62689 13.6742 7.95803C14.4737 8.28916 15.1569 8.84991 15.6377 9.56938C16.1184 10.2888 16.375 11.1347 16.375 12C16.3738 13.1599 15.9124 14.272 15.0922 15.0922C14.272 15.9124 13.1599 16.3738 12 16.375ZM12 9.375C11.4808 9.375 10.9733 9.52895 10.5416 9.81739C10.1099 10.1058 9.7735 10.5158 9.57482 10.9955C9.37614 11.4751 9.32415 12.0029 9.42544 12.5121C9.52672 13.0213 9.77673 13.489 10.1438 13.8562C10.511 14.2233 10.9787 14.4733 11.4879 14.5746C11.9971 14.6758 12.5249 14.6239 13.0045 14.4252C13.4842 14.2265 13.8942 13.8901 14.1826 13.4584C14.471 13.0267 14.625 12.5192 14.625 12C14.6244 11.304 14.3476 10.6367 13.8555 10.1445C13.3633 9.65238 12.696 9.37562 12 9.375ZM12.5833 23.375H11.4167C10.7207 23.3744 10.0533 23.0976 9.56119 22.6055C9.06904 22.1133 8.79228 21.446 8.79167 20.75C8.79313 20.6659 8.7695 20.5832 8.72379 20.5125C8.67807 20.4419 8.61235 20.3865 8.535 20.3533H8.52567C8.45521 20.3242 8.37768 20.3166 8.30291 20.3315C8.22813 20.3465 8.15948 20.3833 8.10567 20.4373C7.60963 20.9278 6.94152 21.2049 6.24399 21.2094C5.54645 21.214 4.87476 20.9457 4.37233 20.4618L3.55567 19.6382C3.31117 19.3942 3.1172 19.1045 2.98485 18.7854C2.8525 18.4664 2.78437 18.1245 2.78437 17.7791C2.78437 17.4337 2.8525 17.0917 2.98485 16.7727C3.1172 16.4537 3.31117 16.1639 3.55567 15.92C3.61357 15.8606 3.6529 15.7856 3.66886 15.7041C3.68481 15.6227 3.67669 15.5384 3.6455 15.4615C3.617 15.3888 3.5675 15.3262 3.50329 15.2817C3.43909 15.2373 3.36309 15.2129 3.285 15.2118C2.93739 15.2152 2.59255 15.1498 2.27035 15.0193C1.94815 14.8888 1.65497 14.6958 1.4077 14.4514C1.16043 14.2071 0.963969 13.9162 0.829635 13.5956C0.695301 13.275 0.625753 12.931 0.625 12.5833V11.4167C0.625618 10.7207 0.902378 10.0533 1.39453 9.56119C1.88668 9.06904 2.554 8.79228 3.25 8.79167C3.33404 8.79337 3.41665 8.76982 3.48716 8.72407C3.55767 8.67831 3.61283 8.61245 3.6455 8.535V8.52567C3.67436 8.45516 3.68178 8.3777 3.66684 8.303C3.65189 8.22829 3.61525 8.15965 3.5615 8.10567C3.31297 7.86316 3.11503 7.57376 2.97913 7.25422C2.84324 6.93467 2.77209 6.59135 2.76981 6.24411C2.76753 5.89688 2.83417 5.55265 2.96586 5.23135C3.09755 4.91006 3.29168 4.61808 3.537 4.37233L4.36417 3.54517C4.86367 3.0667 5.52864 2.7996 6.22033 2.7996C6.91202 2.7996 7.577 3.0667 8.0765 3.54517C8.13545 3.60646 8.21136 3.64875 8.2945 3.66663C8.37765 3.68451 8.46423 3.67715 8.54317 3.6455C8.61553 3.61711 8.67775 3.56772 8.72183 3.50369C8.7659 3.43965 8.78982 3.3639 8.7905 3.28617C8.78696 2.93866 8.85221 2.59388 8.9825 2.2717C9.11279 1.94952 9.30554 1.6563 9.54965 1.40894C9.79376 1.16158 10.0844 0.96496 10.4048 0.830416C10.7253 0.695872 11.0691 0.626059 11.4167 0.625H12.5833C13.2793 0.625618 13.9467 0.902378 14.4388 1.39453C14.931 1.88668 15.2077 2.554 15.2083 3.25C15.2042 3.33211 15.2255 3.4135 15.2693 3.48304C15.3132 3.55258 15.3774 3.60687 15.4533 3.6385C15.5271 3.66993 15.6083 3.67972 15.6874 3.6667C15.7666 3.65368 15.8403 3.61841 15.9002 3.565C16.1439 3.31523 16.4351 3.11678 16.7567 2.98133C17.0783 2.84588 17.4237 2.77618 17.7727 2.77633C18.1175 2.77537 18.4592 2.84283 18.7778 2.9748C19.0964 3.10677 19.3857 3.30063 19.6288 3.54517L20.4525 4.36183C20.6963 4.60559 20.8896 4.89497 21.0215 5.21345C21.1535 5.53193 21.2214 5.87328 21.2214 6.218C21.2214 6.56272 21.1535 6.90407 21.0215 7.22255C20.8896 7.54103 20.6963 7.83041 20.4525 8.07417C20.3906 8.12891 20.3471 8.20148 20.3281 8.2819C20.3091 8.36233 20.3155 8.44667 20.3463 8.52333L20.3533 8.53967C20.3818 8.6116 20.4311 8.67337 20.4949 8.71703C20.5587 8.7607 20.6342 8.78425 20.7115 8.78467C21.0597 8.78081 21.4052 8.84603 21.728 8.97654C22.0509 9.10705 22.3446 9.30028 22.5923 9.54504C22.84 9.78979 23.0367 10.0812 23.171 10.4025C23.3054 10.7237 23.3747 11.0684 23.375 11.4167V12.5833C23.3744 13.2793 23.0976 13.9467 22.6055 14.4388C22.1133 14.931 21.446 15.2077 20.75 15.2083C20.6679 15.2042 20.5865 15.2255 20.517 15.2693C20.4474 15.3132 20.3931 15.3774 20.3615 15.4533C20.3305 15.5272 20.3209 15.6083 20.3339 15.6873C20.3469 15.7664 20.382 15.8401 20.435 15.9002C20.6832 16.143 20.8808 16.4326 21.0163 16.7523C21.1518 17.072 21.2225 17.4155 21.2243 17.7627C21.2262 18.1099 21.1591 18.4541 21.027 18.7752C20.8949 19.0963 20.7005 19.3881 20.4548 19.6335L19.6382 20.4572C19.1387 20.9356 18.4737 21.2027 17.782 21.2027C17.0903 21.2027 16.4253 20.9356 15.9258 20.4572C15.871 20.3954 15.7984 20.3521 15.718 20.3331C15.6377 20.3141 15.5534 20.3203 15.4767 20.351C15.4024 20.38 15.3382 20.43 15.2919 20.4948C15.2455 20.5597 15.2189 20.6365 15.2153 20.7162C15.2186 21.064 15.1529 21.409 15.0221 21.7313C14.8913 22.0536 14.698 22.3468 14.4533 22.594C14.2086 22.8411 13.9174 23.0374 13.5964 23.1715C13.2755 23.3055 12.9312 23.3747 12.5833 23.375ZM9.30617 18.7877C9.67105 18.9628 9.97992 19.2361 10.1982 19.5769C10.4164 19.9178 10.5353 20.3127 10.5417 20.7173C10.5384 20.8347 10.5586 20.9515 10.601 21.0609C10.6434 21.1704 10.7072 21.2703 10.7887 21.3548C10.8701 21.4393 10.9676 21.5067 11.0755 21.5531C11.1833 21.5995 11.2993 21.624 11.4167 21.625H12.5833C12.8154 21.625 13.038 21.5328 13.2021 21.3687C13.3661 21.2046 13.4583 20.9821 13.4583 20.75C13.4578 20.3189 13.5849 19.8972 13.8236 19.5382C14.0624 19.1792 14.4022 18.899 14.8 18.7328C15.1901 18.5711 15.6196 18.5291 16.0336 18.6122C16.4477 18.6953 16.8277 18.8998 17.1252 19.1995C17.2056 19.2854 17.3024 19.3544 17.4099 19.4022C17.5175 19.4501 17.6335 19.476 17.7512 19.4782C17.8688 19.4805 17.9858 19.4592 18.0951 19.4155C18.2044 19.3719 18.3038 19.3067 18.3875 19.224L19.2112 18.4073C19.3755 18.2428 19.4678 18.0198 19.4678 17.7873C19.4678 17.5547 19.3755 17.3317 19.2112 17.1672C18.9115 16.8655 18.7063 16.483 18.6208 16.0665C18.5352 15.65 18.5729 15.2176 18.7293 14.8222V14.8058L18.7375 14.786C18.8979 14.3949 19.1713 14.0606 19.5227 13.8258C19.8742 13.5909 20.2877 13.4662 20.7103 13.4677C20.8275 13.4708 20.9442 13.4505 21.0534 13.408C21.1627 13.3655 21.2624 13.3016 21.3466 13.2202C21.4309 13.1387 21.4981 13.0413 21.5443 12.9335C21.5905 12.8258 21.6148 12.7099 21.6157 12.5927V11.426C21.6157 11.1939 21.5235 10.9714 21.3594 10.8073C21.1953 10.6432 20.9727 10.551 20.7407 10.551C20.313 10.5563 19.8936 10.4336 19.5362 10.1987C19.1788 9.96376 18.8999 9.62735 18.7352 9.23267C18.5657 8.83759 18.519 8.40066 18.6012 7.97869C18.6834 7.55673 18.8906 7.16925 19.196 6.86667C19.284 6.78389 19.3542 6.68415 19.4025 6.57346C19.4509 6.46277 19.4762 6.34344 19.4772 6.22267C19.4775 6.10773 19.455 5.99387 19.4109 5.88772C19.3669 5.78157 19.3021 5.68524 19.2205 5.60433L18.4038 4.78067C18.3224 4.69946 18.2258 4.6351 18.1195 4.59126C18.0132 4.54742 17.8993 4.52496 17.7843 4.52517C17.6691 4.52462 17.5549 4.54715 17.4485 4.59143C17.3421 4.63572 17.2457 4.70085 17.1648 4.783C16.8628 5.08213 16.4803 5.28696 16.064 5.37251C15.6476 5.45806 15.2153 5.42065 14.8198 5.26483L14.8 5.26133L14.7802 5.25317C14.3891 5.09278 14.0548 4.81938 13.8199 4.46795C13.5851 4.11651 13.4604 3.70301 13.4618 3.28033C13.4649 3.16315 13.4446 3.04651 13.4022 2.93726C13.3597 2.828 13.2958 2.72831 13.2143 2.64402C13.1329 2.55973 13.0354 2.49252 12.9277 2.44633C12.8199 2.40014 12.7041 2.37589 12.5868 2.375H11.4202C11.1881 2.375 10.9655 2.46719 10.8014 2.63128C10.6374 2.79538 10.5452 3.01794 10.5452 3.25C10.5502 3.68063 10.4255 4.1028 10.1872 4.46155C9.94898 4.8203 9.60822 5.09899 9.20933 5.26133C8.81686 5.42229 8.38585 5.46475 7.96952 5.38347C7.55319 5.3022 7.16978 5.10074 6.86667 4.804C6.7861 4.71871 6.68935 4.65033 6.58207 4.60284C6.47478 4.55536 6.35911 4.52973 6.24181 4.52745C6.1245 4.52517 6.00792 4.54628 5.89887 4.58956C5.78982 4.63283 5.69049 4.69741 5.60667 4.7795L4.7795 5.60667C4.69819 5.68792 4.63369 5.78441 4.58968 5.89061C4.54567 5.9968 4.52302 6.11063 4.52302 6.22558C4.52302 6.34054 4.54567 6.45436 4.58968 6.56056C4.63369 6.66676 4.69819 6.76324 4.7795 6.8445C5.08698 7.14336 5.29779 7.52754 5.38472 7.94743C5.47165 8.36732 5.43071 8.80362 5.26717 9.2C5.25121 9.23994 5.2329 9.2789 5.21233 9.31667C5.03576 9.67958 4.76182 9.9863 4.42109 10.2026C4.08035 10.4189 3.68622 10.5363 3.28267 10.5417C3.16533 10.5384 3.04851 10.5586 2.93906 10.601C2.8296 10.6434 2.7297 10.7072 2.64519 10.7887C2.56067 10.8701 2.49325 10.9676 2.44686 11.0755C2.40047 11.1833 2.37604 11.2993 2.375 11.4167V12.5833C2.375 12.8154 2.46719 13.038 2.63128 13.2021C2.79538 13.3661 3.01794 13.4583 3.25 13.4583C3.67814 13.4529 4.09807 13.576 4.45542 13.8119C4.81277 14.0478 5.09109 14.3855 5.25433 14.7813L5.26133 14.7965L5.26717 14.8128C5.42361 15.2052 5.46279 15.6345 5.37995 16.0487C5.29711 16.4629 5.09582 16.8442 4.8005 17.1462C4.71444 17.2278 4.64587 17.326 4.59894 17.4349C4.55201 17.5438 4.5277 17.6611 4.5275 17.7797C4.52662 17.8949 4.54877 18.0092 4.59265 18.1158C4.63652 18.2223 4.70124 18.3191 4.783 18.4003L5.60667 19.217C5.77337 19.3762 5.99504 19.4651 6.22558 19.4651C6.45613 19.4651 6.6778 19.3762 6.8445 19.217C7.14385 18.9102 7.52821 18.7002 7.94804 18.6139C8.36787 18.5276 8.80393 18.569 9.2 18.7328C9.23637 18.7492 9.27181 18.7675 9.30617 18.7877Z" fill="white"/>
</svg>
